<svg width="1400" height="350" viewBox="0 0 1400 350" fill="none" xmlns="http://www.w3.org/2000/svg">
<g clip-path="url(#clip0_28_15)">
<rect width="1400" height="350" fill="white"/>
<circle cx="-0.5" cy="262.5" r="87.5" fill="#633232"/>
<circle cx="174.5" cy="262.5" r="87.5" fill="#E68D24"/>
<circle cx="175.5" cy="88.5" r="87.5" fill="#7A7171"/>
<path d="M175 175.5C175 152.294 165.781 130.038 149.372 113.628C132.962 97.2187 110.706 88 87.5 88C64.2936 88 42.0376 97.2187 25.6282 113.628C9.21873 130.038 3.50408e-06 152.294 0 175.5L87.5 175.5H175Z" fill="#29550E"/>
<path d="M350.54 0.0401611C327.334 0.0401611 305.078 9.25888 288.668 25.6683C272.259 42.0777 263.04 64.3337 263.04 87.5402C263.04 110.747 272.259 133.003 288.668 149.412C305.078 165.821 327.334 175.04 350.54 175.04L350.54 87.5402V0.0401611Z" fill="#D93131"/>
<path d="M87.5 -1C64.2936 -1 42.0376 8.21872 25.6282 24.6282C9.21873 41.0376 1.75204e-06 63.2936 0 86.5C-1.75204e-06 109.706 9.21872 131.962 25.6281 148.372C42.0376 164.781 64.2935 174 87.5 174L87.5 86.5V-1Z" fill="#F77AC5"/>
<path d="M526 87.5C526 64.2936 516.781 42.0376 500.372 25.6282C483.962 9.21873 461.706 1.75204e-06 438.5 0C415.294 -1.75204e-06 393.038 9.21872 376.628 25.6281C360.219 42.0376 351 64.2935 351 87.5L438.5 87.5H526Z" fill="black"/>
<path d="M873 174.5C873 151.294 863.781 129.038 847.372 112.628C830.962 96.2187 808.706 87 785.5 87C762.294 87 740.038 96.2187 723.628 112.628C707.219 129.038 698 151.294 698 174.5L785.5 174.5H873Z" fill="#88EDB7"/>
<path d="M875 175C898.206 175 920.462 165.781 936.872 149.372C953.281 132.962 962.5 110.706 962.5 87.5C962.5 64.2936 953.281 42.0376 936.872 25.6282C920.462 9.21873 898.206 3.50408e-06 875 0L875 87.5V175Z" fill="#78D2F9"/>
<path d="M1225 174C1248.21 174 1270.46 164.781 1286.87 148.372C1303.28 131.962 1312.5 109.706 1312.5 86.5C1312.5 63.2936 1303.28 41.0376 1286.87 24.6282C1270.46 8.21873 1248.21 -0.999996 1225 -1L1225 86.5V174Z" fill="#D9D9D9"/>
<path d="M1049.5 0C1026.29 0 1004.04 9.21873 987.628 25.6282C971.219 42.0376 962 64.2936 962 87.5C962 110.706 971.219 132.962 987.628 149.372C1004.04 165.781 1026.29 175 1049.5 175L1049.5 87.5V0Z" fill="#D9D9D9"/>
<path d="M963 262C963 285.206 972.219 307.462 988.628 323.872C1005.04 340.281 1027.29 349.5 1050.5 349.5C1073.71 349.5 1095.96 340.281 1112.37 323.872C1128.78 307.462 1138 285.206 1138 262L1050.5 262H963Z" fill="#D93131"/>
<path d="M1224 262.5C1224 239.294 1214.78 217.038 1198.37 200.628C1181.96 184.219 1159.71 175 1136.5 175C1113.29 175 1091.04 184.219 1074.63 200.628C1058.22 217.038 1049 239.294 1049 262.5L1136.5 262.5H1224Z" fill="#29550E"/>
<path d="M1049.5 0C1026.29 0 1004.04 9.21873 987.628 25.6282C971.219 42.0376 962 64.2936 962 87.5C962 110.706 971.219 132.962 987.628 149.372C1004.04 165.781 1026.29 175 1049.5 175L1049.5 87.5V0Z" fill="#7A7171"/>
<path d="M699 -1C699 22.2064 708.219 44.4624 724.628 60.8718C741.038 77.2813 763.294 86.5 786.5 86.5C809.706 86.5 831.962 77.2813 848.372 60.8719C864.781 44.4624 874 22.2065 874 -0.999985L786.5 -1L699 -1Z" fill="#E68D24"/>
<path d="M523.5 89C500.294 89 478.038 98.2187 461.628 114.628C445.219 131.038 436 153.294 436 176.5C436 199.706 445.219 221.962 461.628 238.372C478.038 254.781 500.294 264 523.5 264L523.5 176.5V89Z" fill="#F9DE53"/>
<path d="M611 175.5C611 152.294 601.781 130.038 585.372 113.628C568.962 97.2187 546.706 88 523.5 88C500.294 88 478.038 97.2187 461.628 113.628C445.219 130.038 436 152.294 436 175.5L523.5 175.5H611Z" fill="#F9DE53"/>
<path d="M613 350.5C613 327.294 603.781 305.038 587.372 288.628C570.962 272.219 548.706 263 525.5 263C502.294 263 480.038 272.219 463.628 288.628C447.219 305.038 438 327.294 438 350.5L525.5 350.5H613Z" fill="#9537C1"/>
<path d="M1400.58 1.04014C1377.37 1.0295 1355.11 10.238 1338.7 26.6399C1322.28 43.0418 1313.05 65.2936 1313.04 88.5C1313.03 111.706 1322.24 133.967 1338.64 150.384C1355.04 166.801 1377.29 176.029 1400.5 176.04L1400.54 88.5401L1400.58 1.04014Z" fill="#7A9DF7"/>
<path d="M1400.58 174.04C1377.37 174.029 1355.11 183.238 1338.7 199.64C1322.28 216.042 1313.05 238.294 1313.04 261.5C1313.03 284.706 1322.24 306.967 1338.64 323.384C1355.04 339.801 1377.29 349.029 1400.5 349.04L1400.54 261.54L1400.58 174.04Z" fill="#F9DE53"/>
<circle cx="349.5" cy="262.5" r="87.5" fill="#3A70D8"/>
<circle cx="699.5" cy="262.5" r="87.5" fill="#BCA2F5"/>
<circle cx="613.5" cy="87.5" r="87.5" fill="#F9DE53"/>
<circle cx="874.5" cy="262.5" r="87.5" fill="#F77A7A"/>
<circle cx="1136.5" cy="89.5" r="87.5" fill="black"/>
<circle cx="1224.5" cy="262.5" r="87.5" fill="#29550E"/>
<path d="M613.5 174C590.294 174 568.038 183.219 551.628 199.628C535.219 216.038 526 238.294 526 261.5C526 284.706 535.219 306.962 551.628 323.372C568.038 339.781 590.294 349 613.5 349L613.5 261.5V174Z" fill="#9537C1"/>
</g>
<defs>
<clipPath id="clip0_28_15">
<rect width="1400" height="350" fill="white"/>
</clipPath>
</defs>
</svg>
