<svg width="113" height="166" viewBox="0 0 113 166" fill="none" xmlns="http://www.w3.org/2000/svg">
<path d="M32.384 132.28C24.0213 132.28 17.4507 130.445 12.672 126.776C7.97867 123.107 5.632 118.029 5.632 111.544C5.632 105.144 8.10667 100.067 13.056 96.312C18.0907 92.5573 24.9173 90.68 33.536 90.68C38.5707 90.68 43.008 91.3627 46.848 92.728C50.7733 94.0933 53.8027 95.928 55.936 98.232V90.04C55.936 85.176 54.3147 81.464 51.072 78.904C47.9147 76.344 43.264 75.064 37.12 75.064C29.184 75.064 22.3147 76.9413 16.512 80.696C15.0613 81.5493 13.8667 81.976 12.928 81.976C12.0747 81.976 11.2213 81.6347 10.368 80.952C9.42933 80.184 8.96 79.2027 8.96 78.008C8.96 76.728 9.51467 75.6613 10.624 74.808C13.696 72.4187 17.5787 70.5413 22.272 69.176C27.0507 67.7253 31.9147 67 36.864 67C45.9093 67 52.9067 69.048 57.856 73.144C62.8907 77.24 65.408 83 65.408 90.424V127.288C65.408 130.616 63.872 132.28 60.8 132.28C59.4347 132.28 58.3253 131.853 57.472 131C56.6187 130.061 56.192 128.867 56.192 127.416V122.808C50.9013 129.123 42.9653 132.28 32.384 132.28ZM33.536 124.472C40.192 124.472 45.6107 123.235 49.792 120.76C53.9733 118.2 56.064 114.915 56.064 110.904C56.064 106.893 54.1013 103.821 50.176 101.688C46.336 99.4693 40.8747 98.36 33.792 98.36C27.8187 98.36 23.2107 99.512 19.968 101.816C16.7253 104.035 15.104 107.277 15.104 111.544C15.104 115.725 16.6827 118.925 19.84 121.144C22.9973 123.363 27.5627 124.472 33.536 124.472Z" fill="black"/>
<path d="M106.456 42.168C107.309 42.936 107.736 43.8747 107.736 44.984C107.736 46.0933 107.267 47.1173 106.328 48.056C105.475 48.7387 104.664 49.08 103.896 49.08C102.787 49.08 101.293 48.5253 99.416 47.416C96.344 45.624 93.0587 44.728 89.56 44.728C83.2453 44.728 80.088 48.1413 80.088 54.968V68.28H98.264C101.592 68.28 103.256 69.6027 103.256 72.248C103.256 73.4427 102.829 74.3813 101.976 75.064C101.123 75.7467 99.8853 76.088 98.264 76.088H80.088V127.16C80.088 128.781 79.6613 130.061 78.808 131C78.04 131.853 76.9307 132.28 75.48 132.28C74.0293 132.28 72.8773 131.853 72.024 131C71.1707 130.061 70.744 128.781 70.744 127.16V76.088H64.6C62.9787 76.088 61.6987 75.7467 60.76 75.064C59.9067 74.3813 59.48 73.4427 59.48 72.248C59.48 69.6027 61.1867 68.28 64.6 68.28H70.744V55.48C70.744 49.7627 72.408 45.1973 75.736 41.784C79.1493 38.2853 83.6293 36.536 89.176 36.536C92.6747 36.536 95.9173 37.048 98.904 38.072C101.891 39.0107 104.408 40.376 106.456 42.168Z" fill="black"/>
<path d="M60.8 126V134.75C60.8 139.03 64.2698 142.5 68.55 142.5V142.5" stroke="black" stroke-width="9.2"/>
<path d="M63.5 140.5V140.5C67.9564 144.807 75.4 141.649 75.4 135.451V125.5" stroke="black" stroke-width="9.3"/>
</svg>
