<svg width="119" height="166" viewBox="0 0 119 166" fill="none" xmlns="http://www.w3.org/2000/svg">
<rect y="28" width="119" height="125" fill="white"/>
<path d="M35.384 132.28C27.0213 132.28 20.4507 130.445 15.672 126.776C10.9787 123.107 8.632 118.029 8.632 111.544C8.632 105.144 11.1067 100.067 16.056 96.312C21.0907 92.5573 27.9173 90.68 36.536 90.68C41.5707 90.68 46.008 91.3627 49.848 92.728C53.7733 94.0933 56.8027 95.928 58.936 98.232V90.04C58.936 85.176 57.3147 81.464 54.072 78.904C50.9147 76.344 46.264 75.064 40.12 75.064C32.184 75.064 25.3147 76.9413 19.512 80.696C18.0613 81.5493 16.8667 81.976 15.928 81.976C15.0747 81.976 14.2213 81.6347 13.368 80.952C12.4293 80.184 11.96 79.2027 11.96 78.008C11.96 76.728 12.5147 75.6613 13.624 74.808C16.696 72.4187 20.5787 70.5413 25.272 69.176C30.0507 67.7253 34.9147 67 39.864 67C48.9093 67 55.9067 69.048 60.856 73.144C65.8907 77.24 68.408 83 68.408 90.424V127.288C68.408 130.616 66.872 132.28 63.8 132.28C62.4347 132.28 61.3253 131.853 60.472 131C59.6187 130.061 59.192 128.867 59.192 127.416V122.808C53.9013 129.123 45.9653 132.28 35.384 132.28ZM36.536 124.472C43.192 124.472 48.6107 123.235 52.792 120.76C56.9733 118.2 59.064 114.915 59.064 110.904C59.064 106.893 57.1013 103.821 53.176 101.688C49.336 99.4693 43.8747 98.36 36.792 98.36C30.8187 98.36 26.2107 99.512 22.968 101.816C19.7253 104.035 18.104 107.277 18.104 111.544C18.104 115.725 19.6827 118.925 22.84 121.144C25.9973 123.363 30.5627 124.472 36.536 124.472Z" fill="black"/>
<path d="M109.456 42.168C110.309 42.936 110.736 43.8747 110.736 44.984C110.736 46.0933 110.267 47.1173 109.328 48.056C108.475 48.7387 107.664 49.08 106.896 49.08C105.787 49.08 104.293 48.5253 102.416 47.416C99.344 45.624 96.0587 44.728 92.56 44.728C86.2453 44.728 83.088 48.1413 83.088 54.968V68.28H101.264C104.592 68.28 106.256 69.6027 106.256 72.248C106.256 73.4427 105.829 74.3813 104.976 75.064C104.123 75.7467 102.885 76.088 101.264 76.088H83.088V127.16C83.088 128.781 82.6613 130.061 81.808 131C81.04 131.853 79.9307 132.28 78.48 132.28C77.0293 132.28 75.8773 131.853 75.024 131C74.1707 130.061 73.744 128.781 73.744 127.16V76.088H67.6C65.9787 76.088 64.6987 75.7467 63.76 75.064C62.9067 74.3813 62.48 73.4427 62.48 72.248C62.48 69.6027 64.1867 68.28 67.6 68.28H73.744V55.48C73.744 49.7627 75.408 45.1973 78.736 41.784C82.1493 38.2853 86.6293 36.536 92.176 36.536C95.6747 36.536 98.9173 37.048 101.904 38.072C104.891 39.0107 107.408 40.376 109.456 42.168Z" fill="black"/>
<path d="M63.8 126V134.75C63.8 139.03 67.2698 142.5 71.55 142.5V142.5" stroke="black" stroke-width="9.2"/>
<path d="M66.5 140.5V140.5C70.9564 144.807 78.4 141.649 78.4 135.451V125.5" stroke="black" stroke-width="9.3"/>
</svg>
